<svg width="24" height="16" viewBox="0 0 24 16" fill="none" xmlns="http://www.w3.org/2000/svg">
<path d="M11.5569 6.6805C11.4891 6.61283 11.2331 6.3235 10.9946 6.0855C9.59649 4.58867 5.94915 2.13867 4.04014 1.39083C3.75022 1.27067 3.01724 1.01633 2.62562 1C2.25036 1 1.89264 1.084 1.55129 1.25433C1.12577 1.49233 0.784413 1.86683 0.59737 2.309C0.47696 2.61583 0.289917 3.534 0.289917 3.55033C0.102874 4.55483 0 6.187 0 7.99067C0 9.70917 0.102874 11.2748 0.256016 12.2945C0.273551 12.3108 0.460594 13.4518 0.665173 13.8427C1.04043 14.5567 1.7734 15 2.55782 15H2.62562C3.13648 14.9825 4.21081 14.5392 4.21081 14.5228C6.01695 13.7738 9.58013 11.444 11.0122 9.89583C11.0122 9.89583 11.4155 9.498 11.5908 9.2495C11.8644 8.8925 12 8.45033 12 8.00817C12 7.51467 11.8469 7.055 11.5569 6.6805Z" fill="url(#paint0_linear_24_481)"/>
<path d="M22.4196 6.20974L22.4607 6.25659L22.4956 6.30818C22.8357 6.81018 23 7.4036 23 8.007C23 8.55085 22.8569 9.12367 22.5337 9.61286C22.4299 9.77763 22.2894 9.95347 22.199 10.0633C22.147 10.1264 22.1001 10.1816 22.066 10.2211L22.0248 10.2687L22.023 10.2707C21.4098 11.023 20.4064 11.9035 19.4225 12.6583C18.4525 13.4024 17.407 14.0964 16.6401 14.4689C16.6164 14.4823 16.5953 14.4934 16.5814 14.5006C16.5418 14.521 16.4952 14.5435 16.4471 14.5658C16.3491 14.6113 16.2187 14.6682 16.0752 14.725C15.8402 14.8179 15.3933 14.9842 15.0083 14.9992L14.9888 15H14.9692H14.9184C13.8802 15 13.0086 14.3354 12.5903 13.4258L12.5897 13.4244C12.511 13.2525 12.4556 13.0537 12.4182 12.905C12.377 12.741 12.3407 12.567 12.3111 12.4146C12.2928 12.3201 12.2763 12.2301 12.2623 12.1519L12.2425 12.1308L12.2005 11.8113C12.0781 10.8798 12 9.49125 12 7.992C12 6.43788 12.0762 4.98248 12.228 4.04062C12.2293 4.03107 12.2306 4.02272 12.2315 4.01753L12.2381 3.97786C12.2428 3.95016 12.2493 3.9137 12.257 3.87143C12.2724 3.78668 12.2939 3.67303 12.3184 3.55092C12.3617 3.33477 12.4314 3.00354 12.5022 2.79724L12.5061 2.78601L12.5102 2.77488C12.7222 2.20207 13.1131 1.70254 13.6249 1.37543L13.6462 1.36183L13.6681 1.34933C14.0695 1.12042 14.5078 1 14.9692 1H14.993L15.0168 1.00113C15.3181 1.01549 15.6465 1.1174 15.853 1.18832C16.0822 1.26702 16.3036 1.35866 16.4481 1.42651C17.2722 1.79728 18.3838 2.53754 19.3919 3.31399C20.3996 4.09007 21.4108 4.98471 22.0092 5.71272C22.1082 5.82618 22.2063 5.94596 22.282 6.03948C22.3055 6.06847 22.33 6.09886 22.3509 6.12479C22.3633 6.14023 22.3745 6.15408 22.3834 6.16511C22.4028 6.18912 22.4132 6.20185 22.4177 6.20728C22.4206 6.21081 22.421 6.21127 22.4196 6.20974Z" fill="url(#paint1_linear_24_481)" stroke="#DCD9F8" stroke-width="2"/>
<defs>
<linearGradient id="paint0_linear_24_481" x1="24.5915" y1="-1.77477" x2="5.07022" y2="13.8374" gradientUnits="userSpaceOnUse">
<stop stop-color="#FAB8C4"/>
<stop offset="1" stop-color="#5956E9"/>
</linearGradient>
<linearGradient id="paint1_linear_24_481" x1="31.4437" y1="-0.378378" x2="15.3294" y2="10.8981" gradientUnits="userSpaceOnUse">
<stop stop-color="#FAB8C4"/>
<stop offset="1" stop-color="#5956E9"/>
</linearGradient>
</defs>
</svg>
