<svg width="20" height="24" viewBox="0 0 20 24" fill="none" xmlns="http://www.w3.org/2000/svg">
<path d="M19.2616 9.738C19.1486 9.622 18.7219 9.126 18.3244 8.718C15.9942 6.152 9.91525 1.952 6.73356 0.67C6.25037 0.464 5.02874 0.028 4.37603 0C3.75061 0 3.15441 0.144 2.58549 0.436C1.87628 0.844 1.30736 1.486 0.995617 2.244C0.794935 2.77 0.483196 4.344 0.483196 4.372C0.171457 6.094 0 8.892 0 11.984C0 14.93 0.171457 17.614 0.426693 19.362C0.455918 19.39 0.767657 21.346 1.10862 22.016C1.73405 23.24 2.95568 24 4.26303 24H4.37603C5.22747 23.97 7.01802 23.21 7.01802 23.182C10.0283 21.898 15.9669 17.904 18.3536 15.25C18.3536 15.25 19.0258 14.568 19.3181 14.142C19.774 13.53 20 12.772 20 12.014C20 11.168 19.7448 10.38 19.2616 9.738Z" fill="white"/>
</svg>
