<svg width="24" height="16" viewBox="0 0 24 16" fill="none" xmlns="http://www.w3.org/2000/svg">
<path d="M12.4431 6.6805C12.5109 6.61283 12.7669 6.3235 13.0054 6.0855C14.4035 4.58867 18.0509 2.13867 19.9599 1.39083C20.2498 1.27067 20.9828 1.01633 21.3744 1C21.7496 1 22.1074 1.084 22.4487 1.25433C22.8742 1.49233 23.2156 1.86683 23.4026 2.309C23.523 2.61583 23.7101 3.534 23.7101 3.55033C23.8971 4.55483 24 6.187 24 7.99067C24 9.70917 23.8971 11.2748 23.744 12.2945C23.7264 12.3108 23.5394 13.4518 23.3348 13.8427C22.9596 14.5567 22.2266 15 21.4422 15H21.3744C20.8635 14.9825 19.7892 14.5392 19.7892 14.5228C17.983 13.7738 14.4199 11.444 12.9878 9.89583C12.9878 9.89583 12.5845 9.498 12.4092 9.2495C12.1356 8.8925 12 8.45033 12 8.00817C12 7.51467 12.1531 7.055 12.4431 6.6805Z" fill="url(#paint0_linear_24_486)"/>
<path d="M1.58038 6.20974L1.5393 6.25659L1.50436 6.30818C1.16431 6.81018 1 7.4036 1 8.007C1 8.55085 1.14315 9.12367 1.46628 9.61286C1.57006 9.77763 1.71064 9.95347 1.80101 10.0633C1.85297 10.1264 1.89994 10.1816 1.93397 10.2211L1.97524 10.2687L1.97704 10.2707C2.59018 11.023 3.59355 11.9035 4.57752 12.6583C5.54749 13.4024 6.59296 14.0964 7.35994 14.4689C7.38356 14.4823 7.40468 14.4934 7.41855 14.5006C7.45816 14.521 7.50478 14.5435 7.55287 14.5658C7.6509 14.6113 7.78129 14.6682 7.92483 14.725C8.15976 14.8179 8.60667 14.9842 8.99166 14.9992L9.01122 15H9.03078H9.08164C10.1198 15 10.9914 14.3354 11.4097 13.4258L11.4103 13.4244C11.489 13.2525 11.5444 13.0537 11.5818 12.905C11.623 12.741 11.6593 12.567 11.6889 12.4146C11.7072 12.3201 11.7237 12.2301 11.7377 12.1519L11.7575 12.1308L11.7995 11.8113C11.9219 10.8798 12 9.49125 12 7.992C12 6.43788 11.9238 4.98248 11.772 4.04062C11.7707 4.03107 11.7694 4.02272 11.7685 4.01753L11.7619 3.97786C11.7572 3.95016 11.7507 3.9137 11.743 3.87143C11.7276 3.78668 11.7061 3.67303 11.6816 3.55092C11.6383 3.33477 11.5686 3.00354 11.4978 2.79724L11.4939 2.78601L11.4898 2.77488C11.2778 2.20207 10.8869 1.70254 10.3751 1.37543L10.3538 1.36183L10.3319 1.34933C9.93052 1.12042 9.49222 1 9.03078 1H9.00697L8.98317 1.00113C8.68192 1.01549 8.35354 1.1174 8.147 1.18832C7.91778 1.26702 7.69638 1.35866 7.55189 1.42651C6.72783 1.79728 5.61623 2.53754 4.60809 3.31399C3.60043 4.09007 2.58919 4.98471 1.99076 5.71272C1.89178 5.82618 1.79369 5.94596 1.71797 6.03948C1.69449 6.06847 1.67001 6.09886 1.64913 6.12479C1.63669 6.14023 1.62552 6.15408 1.61661 6.16511C1.59722 6.18912 1.58677 6.20185 1.58231 6.20728C1.57941 6.21081 1.57904 6.21127 1.58038 6.20974Z" fill="url(#paint1_linear_24_486)" stroke="#DCD9F8" stroke-width="2"/>
<defs>
<linearGradient id="paint0_linear_24_486" x1="-0.591549" y1="-1.77477" x2="18.9298" y2="13.8374" gradientUnits="userSpaceOnUse">
<stop stop-color="#FAB8C4"/>
<stop offset="1" stop-color="#5956E9"/>
</linearGradient>
<linearGradient id="paint1_linear_24_486" x1="-7.44366" y1="-0.378378" x2="8.67064" y2="10.8981" gradientUnits="userSpaceOnUse">
<stop stop-color="#FAB8C4"/>
<stop offset="1" stop-color="#5956E9"/>
</linearGradient>
</defs>
</svg>
