<svg width="25" height="25" viewBox="0 0 25 25" fill="none" xmlns="http://www.w3.org/2000/svg">
<path d="M24.6612 0.932434C24.6298 0.786315 24.5569 0.652367 24.4512 0.54669C24.3455 0.441013 24.2116 0.368106 24.0655 0.336731C22.4932 -0.000183105 21.2632 -0.000183105 20.0376 -0.000183105C14.9986 -0.000183105 11.9761 2.69513 9.72075 6.24982H4.63286C4.19834 6.25018 3.77248 6.37134 3.40283 6.59975C3.03319 6.82816 2.73432 7.15483 2.5396 7.54327L0.126511 12.3675C0.0373965 12.5462 -0.00457127 12.7447 0.00459125 12.9442C0.0137538 13.1437 0.0737426 13.3375 0.178864 13.5073C0.283986 13.6771 0.430753 13.8172 0.605237 13.9144C0.77972 14.0115 0.97613 14.0624 1.17583 14.0623H6.24272L5.14555 15.1595C4.8526 15.4525 4.68803 15.8499 4.68803 16.2642C4.68803 16.6786 4.8526 17.0759 5.14555 17.369L7.63091 19.8548C7.776 19.9999 7.94827 20.1151 8.13786 20.1936C8.32746 20.2721 8.53067 20.3126 8.73589 20.3126C8.94111 20.3126 9.14432 20.2721 9.33391 20.1936C9.52351 20.1151 9.69577 19.9999 9.84087 19.8548L10.938 18.7576V23.8279C10.938 24.0276 10.9889 24.2239 11.086 24.3983C11.1831 24.5728 11.3232 24.7195 11.4929 24.8246C11.6626 24.9297 11.8564 24.9897 12.0558 24.9989C12.2552 25.0081 12.4537 24.9663 12.6324 24.8773L17.4517 22.4656C17.8408 22.2713 18.168 21.9723 18.3966 21.6023C18.6251 21.2323 18.746 20.8058 18.7457 20.3709V15.2728C22.2901 13.012 24.9957 9.9798 24.9957 4.96564C25.0005 3.73517 25.0005 2.5047 24.6612 0.932434ZM18.7505 8.20294C18.3642 8.20294 17.9866 8.08839 17.6654 7.87378C17.3442 7.65917 17.0939 7.35413 16.9461 6.99725C16.7983 6.64036 16.7596 6.24765 16.8349 5.86878C16.9103 5.48991 17.0963 5.1419 17.3695 4.86875C17.6426 4.5956 17.9906 4.40958 18.3695 4.33422C18.7484 4.25886 19.1411 4.29754 19.498 4.44536C19.8549 4.59319 20.1599 4.84353 20.3745 5.16472C20.5891 5.48591 20.7037 5.86353 20.7037 6.24982C20.7037 6.76782 20.4979 7.2646 20.1316 7.63088C19.7653 7.99717 19.2685 8.20294 18.7505 8.20294Z" fill="#3A2F04"/>
</svg>
