<svg width="15" height="13" viewBox="0 0 15 13" fill="none" xmlns="http://www.w3.org/2000/svg">
<path d="M14.6866 2.37759C14.514 1.63853 14.0058 1.05647 13.3604 0.858938C12.1906 0.5 7.5 0.5 7.5 0.5C7.5 0.5 2.80939 0.5 1.6396 0.858938C0.994234 1.0565 0.485952 1.63853 0.31344 2.37759C0 3.71719 0 6.51213 0 6.51213C0 6.51213 0 9.30706 0.31344 10.6467C0.485952 11.3857 0.994234 11.9435 1.6396 12.1411C2.80939 12.5 7.5 12.5 7.5 12.5C7.5 12.5 12.1906 12.5 13.3604 12.1411C14.0058 11.9435 14.514 11.3857 14.6866 10.6467C15 9.30706 15 6.51213 15 6.51213C15 6.51213 15 3.71719 14.6866 2.37759ZM5.9659 9.04972V3.97453L9.88634 6.51219L5.9659 9.04972Z" fill="#5D1701"/>
</svg>
